<svg xmlns="http://www.w3.org/2000/svg" width="81.292" height="81.538" viewBox="0 0 81.292 81.538">
    <defs>
        <clipPath id="clip-path">
            <path id="Path_89" d="M13.172 82.046L60.348.735s1.373 17.657 1.532 19.008c.151 1.285.907 1.663 1.89 1.361 1.605-.494 5.2-1.814 5.2-1.814S58.064 40.365 56.89 42.5c-.832 1.512 0 1.814 1.058 1.134 1.309-.842 10.874-7.539 10.874-7.539s.163 3.911.163 5.272 1.059 1.285 2.495.983c1.453-.306 10.345-2.31 10.345-2.31l-3.919 11.306c-.454 1.311-.679 2.092.756 2.57a26.175 26.175 0 0 0 3.931.907S59.158 72.738 58.4 73.342c-1.114.89-2.344 1.664-1.21 3.4 1.219 1.87 3.629 5.291 3.629 5.291l-47.649.011" class="cls-1" transform="translate(-13.172 -.735)"/>
        </clipPath>
        <style>
            .cls-1{fill:#d2001c}.cls-2{fill:#aeb0b2}.cls-4{fill:#fff}
        </style>
    </defs>
    <g id="Atlas-footer-logo" transform="translate(0 -.235)">
        <g id="Group_13" transform="translate(52.302 .235)">
            <path id="Path_84" d="M142.533 80.193c.042 1.175.086 2.56.086 3.264 0 1.361 1.058 1.285 2.495.983l.694-.15a1.25 1.25 0 0 1-.24-.833c0-1.361-.163-5.272-.163-5.272s-1.232.864-2.871 2.007" class="cls-2" transform="translate(-130.184 -42.829)"/>
            <path id="Path_85" d="M115.647 64.351c-.831 1.512 0 1.814 1.059 1.134.3-.2 1.053-.706 2.021-1.374 1.683-3.129 11.947-22.967 11.947-22.967s-1.948.715-3.616 1.29c-2.386 4.608-10.413 20.1-11.41 21.918" class="cls-2" transform="translate(-115.308 -22.588)"/>
            <path id="Path_86" d="M125.634 19.243c.152 1.285.907 1.663 1.89 1.361.369-.114.845-.272 1.357-.447a2.128 2.128 0 0 1-.3-.914c-.159-1.351-1.532-19.008-1.532-19.008l-2.6 4.507c.418 5.329 1.073 13.593 1.179 14.5" class="cls-2" transform="translate(-120.306 -.235)"/>
            <path id="Path_87" d="M120.337 120.188c.756-.6 24.191-18.522 24.191-18.522a26.175 26.175 0 0 1-3.931-.907c-1.435-.478-1.209-1.258-.756-2.57s3.919-11.306 3.919-11.306l-3.2.719c-.8 2.312-3.29 9.489-3.67 10.587-.454 1.312-.678 2.092.756 2.57a26.174 26.174 0 0 0 3.931.907s-23.436 17.917-24.191 18.522c-1.113.89-2.344 1.664-1.21 3.4.808 1.239 2.438 3.759 3.445 5.316l3.132-.024s-2.409-3.421-3.629-5.291c-1.134-1.738.1-2.511 1.21-3.4" class="cls-2" transform="translate(-115.537 -47.581)"/>
        </g>
        <g id="Group_15" transform="translate(5.975 .462)">
            <path id="Path_88" d="M13.172 82.046L60.348.735s1.373 17.657 1.532 19.008c.151 1.285.907 1.663 1.89 1.361 1.605-.494 5.2-1.814 5.2-1.814S58.064 40.365 56.89 42.5c-.832 1.512 0 1.814 1.058 1.134 1.309-.842 10.874-7.539 10.874-7.539s.163 3.911.163 5.272 1.059 1.285 2.495.983c1.453-.306 10.345-2.31 10.345-2.31l-3.919 11.306c-.454 1.311-.679 2.092.756 2.57a26.175 26.175 0 0 0 3.931.907S59.158 72.738 58.4 73.342c-1.114.89-2.344 1.664-1.21 3.4 1.219 1.87 3.629 5.291 3.629 5.291l-47.649.011" class="cls-1" transform="translate(-13.172 -.735)"/>
        </g>
        <g id="Group_16" transform="translate(0 4.275)">
            <path id="Path_90" d="M0 156.719l.874-1.52 8.72.612-.81 1.411-1.977-.191-2.258 3.93 1.151 1.622L4.893 164 0 156.719m5.361.178l-3.849-.32 2.209 3.174z" transform="translate(0 -88.95)"/>
            <path id="Path_91" d="M7.586 139.056l-1.753 3.051-1.145-.658 4.266-7.423 1.145.658-1.748 3.04 5.676 3.262-.766 1.333-5.676-3.263" transform="translate(-2.562 -77.381)"/>
            <path id="Path_92" d="M15.207 128.439l.766-1.332 5.636 3.238 2.837-4.935 1.184.68-3.6 6.269-6.821-3.921" transform="translate(-8.309 -72.673)"/>
            <path id="Path_93" d="M27.626 108.644l.874-1.519 8.721.614-.811 1.412-1.977-.192-2.258 3.928 1.156 1.622-.811 1.412-4.893-7.278m5.361.179l-3.848-.319 2.208 3.172z" transform="translate(-15.095 -62.681)"/>
            <path id="Path_94" d="M40.679 87.2c-.722-.139-1.578.118-2.507 1.737-.517.9-.812 1.937-.18 2.3.286.165.658.156 1.649-1.087l1.159-1.471c1.115-1.393 2.225-1.951 3.369-1.293 1.61.924 1.327 2.81.282 4.626-1.679 2.922-3.534 2.815-4.138 2.678l.332-1.516c.635.038 1.645-.053 2.682-1.859.625-1.087.786-2.189.193-2.529-.434-.25-1.01.088-1.7.992l-1.163 1.5c-1.125 1.455-2.311 1.943-3.359 1.341-2.042-1.174-.517-3.83-.215-4.353 1.69-2.931 3.347-2.666 3.917-2.558l-.322 1.5" transform="translate(-19.812 -50.947)"/>
            <path id="Path_95" d="M52.6 82.981l1.322-2.3.753 1-1.322 2.3-.754-1" transform="translate(-28.744 -48.232)"/>
            <path id="Path_96" d="M51.34 67.38l.874-1.521 8.721.613-.811 1.412-1.979-.191-2.257 3.929 1.154 1.622-.811 1.412-4.891-7.276m5.36.177l-3.848-.321 2.208 3.175z" transform="translate(-28.053 -40.133)"/>
            <path id="Path_97" d="M58.432 49.615l2.179-3.791c.664-1.156 1.753-3.05 3.846-1.847s.992 3.091.33 4.246l-1.413 2.458 2.645 1.52-.766 1.332-6.821-3.919m5.379-2.346c.437-.76.758-1.455-.13-1.965-.868-.5-1.319.122-1.755.882l-1.584 2.755 1.886 1.084z" transform="translate(-31.928 -27.966)"/>
            <path id="Path_98" d="M68.175 32.557l3.511-6.112 1.144.659-2.745 4.776 1.59.913 2.364-4.116 1.146.658-2.365 4.117 1.8 1.031 2.804-4.883 1.146.657L75 36.476l-6.822-3.919" transform="translate(-37.252 -18.596)"/>
            <path id="Path_99" d="M82.932 15.249l1.32 3.651-1 1.739-1.752-5.111-4.93.948.976-1.7 3.474-.629-1.207-3.317.97-1.689 1.652 4.759 5.283-1.035-.976 1.7-3.809.686" transform="translate(-41.838 -9.141)"/>
            <path id="Path_100" d="M36.007 150.109l1.566-2.724c.615-1.07 1.3-1.705 2.419-1.064a1.481 1.481 0 0 1 .6 2.033l2.645-.332-.626 1.09-2.544.294-.8 1.4 1.785 1.026-.509.886-4.536-2.607m3.506-1.435c.415-.722.521-1.15-.017-1.459s-.848 0-1.263.723l-.981 1.707 1.28.735z" class="cls-4" transform="translate(-19.675 -83.958)"/>
            <path id="Path_101" d="M46.823 132.318c1.147-2 2.729-2.029 3.97-1.316.939.539 2.023 1.9.79 4.051s-2.956 1.891-3.894 1.351c-1.241-.713-2.012-2.09-.865-4.087m3.408-.46a2.1 2.1 0 1 0 .59 2.758 1.827 1.827 0 0 0-.59-2.757z" class="cls-4" transform="translate(-25.278 -75.497)"/>
            <path id="Path_102" d="M55.951 116.435c1.147-2 2.729-2.029 3.971-1.316.939.539 2.023 1.9.789 4.051s-2.955 1.891-3.894 1.351c-1.241-.713-2.013-2.091-.866-4.087m3.409-.46a2.105 2.105 0 1 0 .59 2.758 1.827 1.827 0 0 0-.591-2.757z" class="cls-4" transform="translate(-30.266 -66.818)"/>
            <path id="Path_103" d="M62.957 103.065l2.4-4.168.761.438-1.887 3.282 1.057.607 1.622-2.823.762.438-1.623 2.823L68 104.786l-.509.886-4.536-2.607" class="cls-4" transform="translate(-34.401 -58.185)"/>
            <path id="Path_104" d="M70.836 93.308l.509-.886 4.536 2.607-.509.886-4.536-2.607" class="cls-4" transform="translate(-38.706 -54.647)"/>
            <path id="Path_105" d="M75.055 81.238l.536-.932 5.018-1.15-3.275-1.883.486-.847 4.536 2.607-.464.808-5.208 1.207L80.078 83l-.486.847-4.536-2.607" class="cls-4" transform="translate(-41.012 -45.907)"/>
            <path id="Path_106" d="M89.91 63l2.376 1.366-.309.539-.571-.1a3.188 3.188 0 0 1-.445 2.006A2.751 2.751 0 1 1 86.19 64.1c.6-1.037 1.639-1.957 2.907-1.518l-.517.9c-.29-.027-.972-.087-1.568.951a1.787 1.787 0 0 0 .577 2.673 1.768 1.768 0 0 0 2.588-.749 1.639 1.639 0 0 0-.034-2.115l-.913 1.589-.709-.407L89.91 63" class="cls-4" transform="translate(-46.828 -38.28)"/>
        </g>
    </g>
</svg>
