<svg xmlns="http://www.w3.org/2000/svg" width="278.112" height="81" viewBox="0 0 278.112 81">
    <defs>
        <style>
            .cls-1{fill:#030504;fill-rule:evenodd}.cls-2{fill:#008cd9}.cls-3{fill:#fff}
        </style>
    </defs>
    <g id="Logo-footer" transform="translate(-60 -49)">
        <g id="Group_9" transform="translate(16.661 -279)">
            <path id="Path_59" d="M267.6 409H43.339l20.456-81h224.256z" class="cls-1"/>
            <path id="Path_60" d="M482.176 409H471.44l20.46-81h10.736z" class="cls-1" transform="translate(-201.46)"/>
            <path id="Path_61" d="M503.382 409h-7.157l20.455-81h7.157z" class="cls-1" transform="translate(-213.123)"/>
            <path id="Path_62" d="M517.829 409h-3.578l20.455-81h3.579z" class="cls-1" transform="translate(-221.606)"/>
            <path id="Path_63" d="M527.9 409h-2.385l20.456-81h2.385z" class="cls-1" transform="translate(-226.907)"/>
        </g>
        <g id="Group_12" transform="translate(-32.171 -55.701)">
            <g id="Group_10" transform="translate(138.495 119.701)">
                <path id="Path_64" d="M140.112 126.722h32.444q-.626.663-1.125 1.126a4.395 4.395 0 0 1-.875.662h-31.632a10.667 10.667 0 0 1 1.188-1.788zm1.75 27.62h12l-.125.464h-12zm1.313-31.528h32.507q-.313.4-.594.8t-.594.795h-32.632zm.062 27.554h12l-1.063 3.113h-12zm1.313-3.908h12l-.937 2.848h-12zm1.375-3.975h12l-.876 2.65h-12zm.031-22.52c.1-.088.219-.176.344-.265h31.319l-.125.265-.125.265h-31.756q.187-.13.344-.264zm1.344 18.612h12l-.875 2.451h-12zm1.376-3.974h12l-.813 2.252h-12zm1.312-3.908h12l-.688 1.987h-12z" class="cls-2" transform="translate(-138.924 -119.701)"/>
                <path id="Path_65" d="M208.391 154.342h12l-.125.464h-12zm1.375-3.974h12l-1.063 3.113h-12zm1.313-3.908h12l-.937 2.848h-12zm12.5-1.325h-12l.876-2.65h12.252l-.312.265zm23.1-5a30.574 30.574 0 0 1-3.782.894h-29.943l.876-2.451h12l-.125.331.312-.331h24.13a15.057 15.057 0 0 1-3.467 1.557zM215.2 134.6h12l-.812 2.252h-12zm1.313-3.908h12l-.688 1.987h-12zm38.446-3.08a6.355 6.355 0 0 1 .062.894h-37.753l.625-1.788h36.945q.062.468.125.898zm-.688-3.212h-35.57l.562-1.59h34.257a13.955 13.955 0 0 1 .756 1.59zm-33.945-4.7h27.881a6.377 6.377 0 0 1 2.625.53h-30.689zm5 22.785h14.634l2.438 2.65h-14.315zm27.912-6.689a13.7 13.7 0 0 1-.906 1.06h-24.75l2.126-2.252h24.255a6.568 6.568 0 0 1-.719 1.196zM229.4 146.46h14.253l2.626 2.848h-13.94zm4 3.908h13.815l2.876 3.113h-13.5zm17.941 4.438h-13.382l-.5-.464H250.9zm3.563-23.083a7.139 7.139 0 0 1-.187.961h-12.632a1.806 1.806 0 0 0 .625-.894 5.468 5.468 0 0 0 .25-1.093h12.065c-.041.353-.083.695-.125 1.026z" class="cls-2" transform="translate(-178.447 -119.701)"/>
                <path id="Path_66" d="M317.047 142.486h12.565a4.06 4.06 0 0 0 1.5 2.65H316.86v-.067a21.7 21.7 0 0 1 .187-2.583zm-.125 3.975h36.133a24.916 24.916 0 0 1-1.938 2.848h-33.632a10.608 10.608 0 0 1-.563-2.849zm.657-6.624q.155-.6.281-1.258h11.94c-.042.089-.053.144-.031.166a.143.143 0 0 1 .031.1 11.416 11.416 0 0 0-.313 2.12v.066H317.3q.122-.598.279-1.195zm.406 10.532h32.194a13.917 13.917 0 0 1-4.189 3.113h-24.129a7.082 7.082 0 0 1-3.876-3.114zm.625-14.6c.083-.375.188-.762.313-1.159h12q-.187.73-.375 1.292t-.313.96H318.36q.125-.536.25-1.099zm13.222-4.04q-.157.5-.282.961h-12l.688-1.987h11.94q-.19.524-.346 1.02zm1.031-3.213h-11.94l.625-1.788h11.878q-.314.987-.563 1.782zm-10-5.7h11.815q-.126.4-.249.828c-.084.288-.167.541-.25.762H322.3zm12.784-2.848a1.357 1.357 0 0 1-.094.265h-11.817l.188-.53h11.815a1.35 1.35 0 0 0-.094.263zm-7.345 34.74a25.487 25.487 0 0 1-3.126-.364h18.38a11.15 11.15 0 0 1-2 .364q-1.064.1-2.188.1h-7.318q-2.062-.002-3.75-.102zm26.068-10.829q-.313.663-.625 1.259H339.3a7.7 7.7 0 0 0 1.719-1.159 11.582 11.582 0 0 0 1.407-1.49h12.565q-.312.726-.623 1.388zm1.688-4.04l-.5 1.192H343.49a16.607 16.607 0 0 0 .938-1.656l.249-.795h11.878q-.255.661-.499 1.256zm1.219-3.378a1.071 1.071 0 0 1-.156.4H345.3l.75-2.252h11.878l-.5 1.457a1.035 1.035 0 0 0-.153.392zm-9.846-5.762h11.816l-.688 1.987h-11.817zm1.313-3.974h11.878l-.625 1.788h-11.819zm1.376-3.908h11.878l-.562 1.59h-11.881zm12.753-2.583h-11.881l.188-.53h11.878z" class="cls-2" transform="translate(-240.344 -119.701)"/>
                <path id="Path_67" d="M435.816 154.806h-31.444l.125-.464h31.882a2.958 2.958 0 0 1-.563.464zm2.969-2.782q-.782.795-1.469 1.457H404.81l1.063-3.113h34.382a21.516 21.516 0 0 1-1.47 1.656zm3.47-4.239a7.421 7.421 0 0 1-.563.861 2.121 2.121 0 0 0-.25.331 2.185 2.185 0 0 1-.25.332h-34.945l.938-2.848h35.82q-.313.595-.75 1.324zm-33.695-5.3h11.94l-.875 2.65h-11.94zm1.375-3.908h11.94l-.125.464.438-.464H436.5l-2.438 2.451h-25.001zm1.376-3.974h11.94l-.75 2.252h-12zm1.312-3.908h12l-.688 1.987h-12zm33.257-2.848a4.394 4.394 0 0 1-.875.662h-31.631l.625-1.788h33.007q-.626.664-1.125 1.127zm3.657-4.239q-.281.4-.594.795h-34.131l.563-1.59h34.757q-.313.398-.594.796zm2.532-3.908l-.125.265-.125.265H416.25l.187-.53zm-26.006 14.9h14.378l-2.25 2.252h-14.315z" class="cls-2" transform="translate(-290.224 -119.701)"/>
            </g>
            <g id="Group_11" transform="translate(138.171 158.268)">
                <path id="Path_68" d="M141.778 209.388h9.022V211h-9.019a1.849 1.849 0 0 0-1.276.47 1.491 1.491 0 0 0 0 2.276 1.851 1.851 0 0 0 1.276.47h5.411a3.7 3.7 0 0 1 2.552.941 2.982 2.982 0 0 1 0 4.552 3.7 3.7 0 0 1-2.552.941h-9.019v-1.608h9.019a1.849 1.849 0 0 0 1.276-.471 1.491 1.491 0 0 0 0-2.276 1.85 1.85 0 0 0-1.276-.47h-5.411a3.7 3.7 0 0 1-2.552-.941 2.982 2.982 0 0 1 0-4.552 3.7 3.7 0 0 1 2.549-.944z" class="cls-3" transform="translate(-138.171 -209.388)"/>
                <path id="Path_69" d="M179.114 219.039h6.313v1.608h-6.313A6.473 6.473 0 0 1 174.65 219a5.21 5.21 0 0 1 0-7.962 6.473 6.473 0 0 1 4.464-1.649h6.313V211h-6.313a4.616 4.616 0 0 0-3.183 1.174 3.789 3.789 0 0 0-1.244 2.043h10.741v1.609h-10.742a3.746 3.746 0 0 0 1.244 2.034 4.6 4.6 0 0 0 3.184 1.179z" class="cls-3" transform="translate(-157.909 -209.388)"/>
                <path id="Path_70" d="M216.45 211h-9.018v-1.609h9.018a3.7 3.7 0 0 1 2.553.941 2.983 2.983 0 0 1 0 4.552 3.6 3.6 0 0 1-1.542.82q.244.184.487.394a5.9 5.9 0 0 1 2.11 4.552h-1.8a4.412 4.412 0 0 0-1.583-3.414 5.549 5.549 0 0 0-3.828-1.411h-3.607v4.825h-1.8v-8.05h1.8v1.608h7.215a1.851 1.851 0 0 0 1.276-.47 1.491 1.491 0 0 0 0-2.276 1.849 1.849 0 0 0-1.281-.462z" class="cls-3" transform="translate(-177.648 -209.388)"/>
                <path id="Path_71" d="M242.062 211v-1.609h1.8V211a12.616 12.616 0 0 0 1.321 4.652q1.321 2.988 3.188 3.39 1.867-.4 3.188-3.39a12.613 12.613 0 0 0 1.325-4.652v-1.609h1.8V211a14.171 14.171 0 0 1-1.849 5.992q-1.849 3.659-4.464 3.659t-4.465-3.659a14.176 14.176 0 0 1-1.844-5.992z" class="cls-3" transform="translate(-197.387 -209.388)"/>
                <path id="Path_72" d="M278.5 209.388v11.26h-1.8v-11.26z" class="cls-3" transform="translate(-217.125 -209.388)"/>
                <path id="Path_73" d="M292.468 219.039h6.313v1.608h-6.313A6.473 6.473 0 0 1 288 219a5.21 5.21 0 0 1 0-7.962 6.473 6.473 0 0 1 4.464-1.649h6.313V211h-6.313a4.625 4.625 0 0 0-3.188 1.178 3.72 3.72 0 0 0 0 5.687 4.626 4.626 0 0 0 3.192 1.174z" class="cls-3" transform="translate(-222.519 -209.388)"/>
                <path id="Path_74" d="M327.1 219.039h6.313v1.608H327.1a6.474 6.474 0 0 1-4.465-1.647 5.211 5.211 0 0 1 0-7.962 6.474 6.474 0 0 1 4.465-1.649h6.313V211H327.1a4.617 4.617 0 0 0-3.184 1.174 3.792 3.792 0 0 0-1.245 2.043h10.741v1.609h-10.741a3.748 3.748 0 0 0 1.245 2.034 4.6 4.6 0 0 0 3.184 1.179z" class="cls-3" transform="translate(-242.258 -209.388)"/>
                <path id="Path_75" d="M359.023 209.388h9.019V211h-9.019a1.847 1.847 0 0 0-1.276.47 1.49 1.49 0 0 0 0 2.276 1.849 1.849 0 0 0 1.276.47h5.411a3.7 3.7 0 0 1 2.552.941 2.982 2.982 0 0 1 0 4.552 3.7 3.7 0 0 1-2.552.941h-9.019v-1.608h9.019a1.848 1.848 0 0 0 1.276-.471 1.491 1.491 0 0 0 0-2.276 1.85 1.85 0 0 0-1.276-.47h-5.411a3.7 3.7 0 0 1-2.552-.941 2.982 2.982 0 0 1 0-4.552 3.7 3.7 0 0 1 2.552-.944z" class="cls-3" transform="translate(-261.996 -209.388)"/>
                <path id="Path_76" d="M403.578 209.388v11.26h-1.8v-11.26z" class="cls-3" transform="translate(-288.419 -209.388)"/>
                <path id="Path_77" d="M413.041 215.018v5.63h-1.8v-5.63a5.146 5.146 0 0 1 1.849-3.981 6.868 6.868 0 0 1 8.929 0 5.148 5.148 0 0 1 1.849 3.981v5.63h-1.8v-5.63a3.677 3.677 0 0 0-1.321-2.843 4.9 4.9 0 0 0-6.376 0 3.676 3.676 0 0 0-1.33 2.843z" class="cls-3" transform="translate(-293.813 -209.388)"/>
                <path id="Path_78" d="M452.181 219.039h6.313v1.608h-6.313a6.472 6.472 0 0 1-4.464-1.647 5.21 5.21 0 0 1 0-7.962 6.472 6.472 0 0 1 4.464-1.649h6.313V211h-6.313a4.623 4.623 0 0 0-3.188 1.178 3.719 3.719 0 0 0 0 5.687 4.624 4.624 0 0 0 3.188 1.174z" class="cls-3" transform="translate(-313.552 -209.388)"/>
                <path id="Path_79" d="M482.3 231.832v1.608h-1.8v-1.608z" class="cls-3" transform="translate(-333.29 -222.181)"/>
            </g>
        </g>
    </g>
</svg>
