<svg xmlns="http://www.w3.org/2000/svg" width="30" height="30" viewBox="0 0 30 30">
    <defs>
        <style>
            .cls-1{fill:#fff}
        </style>
    </defs>
    <g id="right" transform="rotate(-90 15 16)">
        <path id="Path_13081" d="M16 1A15 15 0 1 1 1 16 15 15 0 0 1 16 1zm0 28A13 13 0 1 0 3 16a13 13 0 0 0 13 13z" class="cls-1"/>
        <path id="Path_13082" d="M10.41 12.13L16 17.71l5.59-5.58a1 1 0 0 1 1.41 0 1 1 0 0 1 0 1.41l-6.36 6.36a.91.91 0 0 1-1.28 0L9 13.54a1 1 0 0 1 0-1.41 1 1 0 0 1 1.41 0z" class="cls-1"/>
    </g>
</svg>
