<svg xmlns="http://www.w3.org/2000/svg" id="instagram" width="18.794" height="18.794" viewBox="0 0 18.794 18.794">
    <defs>
        <style>
            .cls-1{fill:#fff}.cls-2{fill:none}
        </style>
    </defs>
    <path id="Path_51" d="M143.3 157.762a2.718 2.718 0 1 1 2.718-2.718 2.73 2.73 0 0 1-2.718 2.718zm0-6.961a4.243 4.243 0 1 0 4.243 4.243 4.251 4.251 0 0 0-4.243-4.244z" class="cls-1" transform="translate(-133.958 -145.266)"/>
    <path id="Path_52" d="M0 18.794V0h18.793v18.794" class="cls-2"/>
    <circle id="Ellipse_1" cx=".961" cy=".961" r=".961" class="cls-1" transform="translate(12.794 4.475)"/>
    <path id="Path_53" d="M0 18.794V0h18.793v18.794" class="cls-2"/>
    <path id="Path_54" d="M45.684 54.978a3.239 3.239 0 0 1-.961 2.42 3.426 3.426 0 0 1-2.42.862h-6.762a3.426 3.426 0 0 1-2.42-.862 3.332 3.332 0 0 1-.895-2.453V48.15a3.3 3.3 0 0 1 .895-2.42 3.371 3.371 0 0 1 2.42-.862h6.828a3.3 3.3 0 0 1 2.42.895 3.42 3.42 0 0 1 .895 2.386zm.132-10.278a4.721 4.721 0 0 0-3.48-1.359h-6.828A4.541 4.541 0 0 0 30.7 48.15v6.795a4.769 4.769 0 0 0 1.392 3.547 4.837 4.837 0 0 0 3.447 1.293H42.3a4.894 4.894 0 0 0 3.48-1.293 4.745 4.745 0 0 0 1.359-3.513V48.15a4.752 4.752 0 0 0-1.323-3.45z" class="cls-1" transform="translate(-29.575 -41.753)"/>
    <path id="Path_55" d="M0 18.794V0h18.793v18.794" class="cls-2"/>
</svg>
