<svg id="Layer_1" data-name="Layer 1" xmlns="http://www.w3.org/2000/svg" width="0.561in" height="0.561in" viewBox="0 0 40.392 40.392"><defs><style>.cls-1{fill:#118cd9;stroke:#118cd9;stroke-miterlimit:4.002;stroke-width:0.75px;}.cls-2{fill:#fff;}</style></defs><circle class="cls-1" cx="20.196" cy="20.196" r="19.821"/><path class="cls-2" d="M20.2,10.983a.709.709,0,0,0-.709.709V28.7a.709.709,0,0,0,1.418,0V11.692a.709.709,0,0,0-.708-.709Z"/><path class="cls-2" d="M26.368,16.86,20.7,11.19a.708.708,0,0,0-1,0l-5.67,5.67a.709.709,0,0,0,1,1L20.2,12.7l5.168,5.167a.71.71,0,1,0,1-1Z"/></svg>