<svg id="instagram" xmlns="http://www.w3.org/2000/svg" width="18.793" height="18.794" viewBox="0 0 18.793 18.794"><path id="Path_51" data-name="Path 51" d="M9.342,12.5A2.718,2.718,0,1,1,12.06,9.778,2.718,2.718,0,0,1,9.342,12.5Zm0-6.961a4.243,4.243,0,1,0,4.243,4.243h0A4.251,4.251,0,0,0,9.342,5.534Z"/><path id="Path_52" data-name="Path 52" d="M0,18.794V0H18.793V18.794" style="fill:none"/><circle id="Ellipse_1" data-name="Ellipse 1" cx="13.755" cy="5.436" r="0.961"/><path id="Path_53" data-name="Path 53" d="M0,18.794V0H18.793V18.794" style="fill:none"/><path id="Path_54" data-name="Path 54" d="M16.109,13.225a3.239,3.239,0,0,1-.961,2.42,3.429,3.429,0,0,1-2.42.862H5.966a3.429,3.429,0,0,1-2.42-.862,3.331,3.331,0,0,1-.895-2.453V6.4a3.3,3.3,0,0,1,.9-2.42,3.374,3.374,0,0,1,2.42-.862h6.828a3.3,3.3,0,0,1,2.42.895,3.418,3.418,0,0,1,.9,2.386Zm.132-10.278a4.721,4.721,0,0,0-3.48-1.359H5.933A4.541,4.541,0,0,0,1.125,5.845a4.621,4.621,0,0,0,0,.552v6.8a4.769,4.769,0,0,0,1.392,3.547,4.836,4.836,0,0,0,3.447,1.293h6.761a4.894,4.894,0,0,0,3.48-1.293,4.747,4.747,0,0,0,1.359-3.513V6.4A4.755,4.755,0,0,0,16.241,2.947Z"/><path id="Path_55" data-name="Path 55" d="M0,18.794V0H18.793V18.794" style="fill:none"/></svg>