<svg id="Layer_1" data-name="Layer 1" xmlns="http://www.w3.org/2000/svg" width="306.782" height="81.96" viewBox="0 0 306.782 81.96"><g id="Logo"><path id="Path_46" data-name="Path 46" d="M23.453,0H306.782L288.769,81.96H23.453Z" style="fill:#118cd9"/><g id="Logo-2"><g id="Group_9" data-name="Group 9"><path id="Path_59" data-name="Path 59" d="M225.572,81.96H0L20.576,0H246.142Z" style="fill:#030504;fill-rule:evenodd"/><path id="Path_60" data-name="Path 60" d="M238.764,81.96h-10.8L248.545,0h10.8Z" style="fill:#030504;fill-rule:evenodd"/><path id="Path_61" data-name="Path 61" d="M248.363,81.96h-7.2L261.739,0h7.2Z" style="fill:#030504;fill-rule:evenodd"/><path id="Path_62" data-name="Path 62" d="M254.362,81.96h-3.6L271.337,0h3.6Z" style="fill:#030504;fill-rule:evenodd"/><path id="Path_63" data-name="Path 63" d="M259.16,81.96h-2.4L277.336,0h2.4Z" style="fill:#030504;fill-rule:evenodd"/></g><g id="Group_12" data-name="Group 12"><g id="Group_10" data-name="Group 10"><path id="Path_64" data-name="Path 64" d="M47.79,22.282H80.423q-.63.671-1.131,1.139a4.4,4.4,0,0,1-.88.67H46.6A10.788,10.788,0,0,1,47.79,22.282Zm1.76,27.947H61.62l-.126.47H49.424Zm1.321-31.9h32.7q-.315.4-.6.809c-.188.27-.388.538-.6.8H49.55Zm.062,27.88H63l-1.069,3.15H49.864Zm1.321-3.954h12.07l-.943,2.882H51.311Zm1.383-4.022h12.07l-.881,2.681H52.755Zm.031-22.787a4.217,4.217,0,0,1,.346-.268h31.5l-.126.268-.126.268H53.323c.125-.088.241-.177.346-.267ZM55.02,34.278H67.09l-.88,2.48H54.14ZM56.4,30.256h12.07l-.818,2.279H55.586ZM57.723,26.3h12.07L69.1,28.313H57.031Z" style="fill:#008cd9"/><path id="Path_65" data-name="Path 65" d="M76.714,50.229h12.07l-.126.47H76.588ZM78.1,46.208h12.07L89.1,49.358H77.028Zm1.32-3.954H91.488l-.943,2.882H78.475ZM91.99,40.913H79.92l.881-2.681H93.125l-.314.268Zm23.235-5.059a30.617,30.617,0,0,1-3.8.905H81.3l.881-2.48H94.255l-.126.334.314-.334h24.271a15.125,15.125,0,0,1-3.488,1.575Zm-31.663-5.6H95.633l-.817,2.279H82.746ZM84.883,26.3h12.07l-.692,2.011H84.191Zm38.671-3.116a6.357,6.357,0,0,1,.062.9H85.643l.628-1.809h37.161q.063.474.126.909Zm-.692-3.25H87.084l.565-1.609h34.457a14.155,14.155,0,0,1,.761,1.609ZM88.718,15.177h28.044a6.386,6.386,0,0,1,2.641.536H88.534Zm5.03,23.055h14.719l2.452,2.681h-14.4Zm28.075-6.768q-.429.558-.912,1.072H96.017l2.138-2.279h24.4a6.674,6.674,0,0,1-.723,1.211ZM97.845,42.254h14.337l2.641,2.882H100.8Zm4.024,3.954h13.9l2.892,3.15H105.078ZM119.915,50.7H106.454l-.5-.47h13.519ZM123.5,27.342a7.172,7.172,0,0,1-.188.973h-12.7a1.827,1.827,0,0,0,.628-.905,5.576,5.576,0,0,0,.252-1.106H123.62q-.062.536-.126,1.038Z" style="fill:#008cd9"/><path id="Path_66" data-name="Path 66" d="M123.746,38.233h12.638a4.111,4.111,0,0,0,1.509,2.681H123.558v-.067A22.181,22.181,0,0,1,123.746,38.233Zm-.126,4.022h36.344a25.2,25.2,0,0,1-1.949,2.882H124.187a10.777,10.777,0,0,1-.567-2.883Zm.661-6.7q.156-.607.283-1.273h12.009c-.042.09-.053.145-.031.168a.14.14,0,0,1,.031.1,11.66,11.66,0,0,0-.314,2.145v.067H124q.123-.606.281-1.21Zm.408,10.656h32.383a14.012,14.012,0,0,1-4.214,3.15h-24.27a7.136,7.136,0,0,1-3.9-3.151Zm.629-14.773c.084-.379.189-.771.315-1.172H137.7q-.187.738-.377,1.307t-.315.971H125.067q.125-.542.251-1.112Zm13.3-4.088q-.157.507-.283.973h-12.07l.692-2.011h12.009q-.191.531-.348,1.032Zm1.037-3.251H127.645l.628-1.809h11.948q-.317,1-.567,1.8ZM129.6,18.33H141.48c-.084.27-.168.549-.25.838s-.168.547-.252.771H129.03Zm12.859-2.882a1.424,1.424,0,0,1-.095.268H130.474l.189-.536h11.884a1.378,1.378,0,0,0-.094.266ZM135.067,50.6a25.566,25.566,0,0,1-3.145-.369H150.41a11.083,11.083,0,0,1-2.012.369q-1.069.1-2.2.1h-7.36q-2.074,0-3.772-.1Zm26.22-10.958q-.315.672-.629,1.274H146.129a7.736,7.736,0,0,0,1.729-1.172,11.671,11.671,0,0,0,1.415-1.508h12.639q-.315.735-.627,1.4Zm1.7-4.087-.5,1.206H150.343a16.613,16.613,0,0,0,.944-1.676l.25-.8h11.948q-.257.669-.5,1.271Zm1.226-3.419a1.09,1.09,0,0,1-.157.4h-11.89l.754-2.278h11.948l-.5,1.474a1.049,1.049,0,0,0-.154.4Zm-9.9-5.83h11.885l-.692,2.011H153.615Zm1.32-4.021h11.948l-.629,1.809H155.059Zm1.384-3.954H168.96l-.566,1.609h-11.95Zm12.828-2.614H157.889l.189-.536h11.948Z" style="fill:#008cd9"/><path id="Path_67" data-name="Path 67" d="M193.038,50.7H161.41l.126-.47H193.6A2.959,2.959,0,0,1,193.038,50.7Zm2.986-2.815q-.788.8-1.478,1.474h-32.7l1.07-3.15H197.5a21.777,21.777,0,0,1-1.478,1.676Zm3.49-4.289a7.548,7.548,0,0,1-.566.871,2.112,2.112,0,0,0-.252.335,2.226,2.226,0,0,1-.251.336H163.3l.943-2.882h36.03q-.315.6-.755,1.34Zm-33.892-5.363h12.01l-.88,2.681h-12.01Zm1.383-3.954h12.01l-.126.469.441-.469h14.4l-2.453,2.48H166.126Zm1.384-4.022H180.4l-.754,2.279h-12.07Zm1.32-3.954h12.07l-.692,2.011h-12.07ZM203.16,23.42a4.374,4.374,0,0,1-.88.67H170.464l.629-1.809h33.2q-.63.672-1.132,1.14Zm3.679-4.289q-.284.405-.6.8h-34.33l.566-1.609h34.96q-.315.4-.6.8Zm2.547-3.954-.126.268-.126.268H173.357l.188-.536ZM183.228,30.253H197.69l-2.264,2.279h-14.4Z" style="fill:#008cd9"/></g><g id="Group_11" data-name="Group 11"><path id="Path_68" data-name="Path 68" d="M49.9,54.2h9.075v1.631H49.9a1.857,1.857,0,0,0-1.284.476,1.515,1.515,0,0,0-.175,2.126,1.463,1.463,0,0,0,.175.177,1.861,1.861,0,0,0,1.284.475h5.443a3.71,3.71,0,0,1,2.566.952,3.03,3.03,0,0,1,.352,4.253,2.934,2.934,0,0,1-.352.353,3.706,3.706,0,0,1-2.566.952H46.271V63.97h9.072a1.853,1.853,0,0,0,1.283-.476,1.515,1.515,0,0,0,.176-2.126,1.549,1.549,0,0,0-.176-.177,1.853,1.853,0,0,0-1.283-.476H49.9a3.706,3.706,0,0,1-2.567-.952,3.029,3.029,0,0,1-.351-4.252,2.934,2.934,0,0,1,.351-.354A3.711,3.711,0,0,1,49.9,54.2Z" style="fill:#fff"/><path id="Path_69" data-name="Path 69" d="M67.6,63.967h6.35v1.627H67.6a6.482,6.482,0,0,1-4.49-1.666,5.284,5.284,0,0,1,0-8.056A6.483,6.483,0,0,1,67.6,54.2h6.35v1.63H67.6a4.63,4.63,0,0,0-3.2,1.188,3.835,3.835,0,0,0-1.251,2.067h10.8v1.628h-10.8A3.788,3.788,0,0,0,64.4,62.774a4.609,4.609,0,0,0,3.2,1.193Z" style="fill:#fff"/><path id="Path_70" data-name="Path 70" d="M85.3,55.833H76.227V54.205H85.3a3.706,3.706,0,0,1,2.567.952,3.03,3.03,0,0,1,.35,4.254,2.838,2.838,0,0,1-.35.352,3.6,3.6,0,0,1-1.551.83q.246.186.49.4A5.983,5.983,0,0,1,88.927,65.6H87.116a4.474,4.474,0,0,0-1.592-3.455,5.565,5.565,0,0,0-3.85-1.428H78.045V65.6h-1.81V57.452h1.81v1.627H85.3a1.856,1.856,0,0,0,1.283-.475,1.516,1.516,0,0,0,.176-2.127,1.54,1.54,0,0,0-.176-.176,1.852,1.852,0,0,0-1.288-.468Z" style="fill:#fff"/><path id="Path_71" data-name="Path 71" d="M91.205,55.833V54.205h1.81v1.628a12.829,12.829,0,0,0,1.329,4.707q1.329,3.024,3.207,3.43,1.878-.4,3.206-3.43a12.815,12.815,0,0,0,1.333-4.707V54.205H103.9v1.628a14.4,14.4,0,0,1-1.86,6.063q-1.86,3.7-4.49,3.7T93.06,61.9a14.4,14.4,0,0,1-1.855-6.063Z" style="fill:#fff"/><path id="Path_72" data-name="Path 72" d="M108,54.2V65.6h-1.81V54.2Z" style="fill:#fff"/><path id="Path_73" data-name="Path 73" d="M116.627,63.967h6.349v1.627h-6.349a6.485,6.485,0,0,1-4.495-1.666,5.288,5.288,0,0,1,0-8.056,6.487,6.487,0,0,1,4.491-1.669h6.349v1.63h-6.349a4.64,4.64,0,0,0-3.207,1.192,3.779,3.779,0,0,0-.448,5.3,3.734,3.734,0,0,0,.448.45,4.632,4.632,0,0,0,3.211,1.188Z" style="fill:#fff"/><path id="Path_74" data-name="Path 74" d="M131.607,63.967h6.35v1.627h-6.35a6.484,6.484,0,0,1-4.491-1.666,5.281,5.281,0,0,1,0-8.056,6.485,6.485,0,0,1,4.491-1.669h6.35v1.63h-6.35a4.628,4.628,0,0,0-3.2,1.188,3.836,3.836,0,0,0-1.252,2.067h10.8v1.628h-10.8a3.79,3.79,0,0,0,1.252,2.058,4.609,4.609,0,0,0,3.2,1.193Z" style="fill:#fff"/><path id="Path_75" data-name="Path 75" d="M143.863,54.2h9.072v1.631h-9.072a1.855,1.855,0,0,0-1.284.476,1.513,1.513,0,0,0-.177,2.124,1.5,1.5,0,0,0,.177.179,1.859,1.859,0,0,0,1.284.475h5.442a3.711,3.711,0,0,1,2.567.952,3.03,3.03,0,0,1,.352,4.253,2.934,2.934,0,0,1-.352.353,3.706,3.706,0,0,1-2.567.952h-9.071V63.97h9.071a1.853,1.853,0,0,0,1.284-.476,1.515,1.515,0,0,0,.176-2.126,1.549,1.549,0,0,0-.176-.177,1.853,1.853,0,0,0-1.284-.476h-5.442a3.706,3.706,0,0,1-2.567-.952,3.029,3.029,0,0,1-.351-4.252,2.934,2.934,0,0,1,.351-.354A3.709,3.709,0,0,1,143.863,54.2Z" style="fill:#fff"/><path id="Path_76" data-name="Path 76" d="M162.1,54.2V65.6H160.29V54.2Z" style="fill:#fff"/><path id="Path_77" data-name="Path 77" d="M166.194,59.9v5.7h-1.811V59.9a5.218,5.218,0,0,1,1.86-4.028,6.876,6.876,0,0,1,8.981,0,5.221,5.221,0,0,1,1.86,4.028v5.7h-1.811V59.9a3.729,3.729,0,0,0-1.328-2.877,4.909,4.909,0,0,0-6.414,0A3.728,3.728,0,0,0,166.194,59.9Z" style="fill:#fff"/><path id="Path_78" data-name="Path 78" d="M185.708,63.967h6.35v1.627h-6.35a6.482,6.482,0,0,1-4.49-1.666,5.284,5.284,0,0,1,0-8.056,6.484,6.484,0,0,1,4.49-1.669h6.35v1.63h-6.35a4.635,4.635,0,0,0-3.207,1.192,3.772,3.772,0,0,0,0,5.754,4.635,4.635,0,0,0,3.207,1.188Z" style="fill:#fff"/><path id="Path_79" data-name="Path 79" d="M196.15,63.967v1.627h-1.811V63.967Z" style="fill:#fff"/></g></g></g></g></svg>