<svg id="Layer_1" data-name="Layer 1" xmlns="http://www.w3.org/2000/svg" width="225.239" height="59.8" viewBox="0 0 225.239 59.8"><g id="Logo"><path id="Path_46" data-name="Path 46" d="M17.2.384h208L212,60.184H17.2Z" transform="translate(0.039 -0.384)" style="fill:#118cd9"/><g id="Logo-2"><g id="Group_9" data-name="Group 9"><path id="Path_59" data-name="Path 59" d="M165.661,60.184H-.039l15.1-59.8h165.6Z" transform="translate(0.039 -0.384)" style="fill:#030504;fill-rule:evenodd"/><path id="Path_60" data-name="Path 60" d="M175.361,60.184h-7.9l15.1-59.8h7.9Z" transform="translate(0.039 -0.384)" style="fill:#030504;fill-rule:evenodd"/><path id="Path_61" data-name="Path 61" d="M182.361,60.184h-5.3l15.1-59.8h5.3Z" transform="translate(0.039 -0.384)" style="fill:#030504;fill-rule:evenodd"/><path id="Path_62" data-name="Path 62" d="M186.761,60.184h-2.6l15.1-59.8h2.6Z" transform="translate(0.039 -0.384)" style="fill:#030504;fill-rule:evenodd"/><path id="Path_63" data-name="Path 63" d="M190.261,60.184h-1.8l15.1-59.8h1.8Z" transform="translate(0.039 -0.384)" style="fill:#030504;fill-rule:evenodd"/></g><g id="Group_12" data-name="Group 12"><g id="Group_10" data-name="Group 10"><path id="Path_64" data-name="Path 64" d="M35.124,16.584h24l-.8.8a2.651,2.651,0,0,1-.6.5h-23.4A3.07,3.07,0,0,1,35.124,16.584Zm1.3,20.4h8.9l-.1.3h-8.9Zm.9-23.2h24a2.092,2.092,0,0,0-.4.6c-.1.2-.3.4-.4.6h-24.1Zm.1,20.3h8.9l-.8,2.3h-8.9Zm.9-2.9h8.9l-.7,2.1h-8.9Zm1.1-2.9h8.9l-.6,2h-8.9Zm0-16.7c.1,0,.1-.1.2-.1h23.1l-.1.2-.1.2h-23.4l.3-.3Zm1,13.8h8.9l-.6,1.8h-8.9Zm1-2.9h8.9l-.6,1.6h-8.9Zm1-2.9h8.9l-.6,1.4h-8.9Z" transform="translate(0.039 -0.384)" style="fill:#008cd9"/><path id="Path_65" data-name="Path 65" d="M56.324,36.984h8.9l-.1.3h-8.9Zm1-2.9h8.9l-.8,2.3h-8.9Zm1-2.9h8.9l-.7,2.1h-8.9Zm9.2-1h-8.9l.6-2h9l-.1.3Zm17.1-3.7a22.912,22.912,0,0,1-2.8.7h-22.1l.6-1.8h8.9l-.1.2.2-.2h17.8a7.956,7.956,0,0,1-2.5,1.1Zm-23.3-4h8.9l-.6,1.7h-8.9Zm1-2.9h8.9l-.5,1.5h-8.9Zm28.4-2.3v.7h-27.8l.4-1.4h27.3c0,.3.1.5.1.7Zm-.5-2.4h-26.3l.4-1.2h25.3l.6,1.2Zm-25.1-3.4h20.6a4.058,4.058,0,0,1,1.9.4h-22.6Zm3.7,16.8h10.8l1.8,2h-10.5Zm20.6-5a5.008,5.008,0,0,1-.7.8h-18.2l1.6-1.6h17.9a5.547,5.547,0,0,1-.6.8Zm-17.6,7.9h10.5l1.9,2.1h-10.2Zm3,2.9h10.2l2.1,2.3h-10Zm13.2,3.3h-9.9l-.4-.3h9.9Zm2.7-17.1c0,.2-.1.5-.1.7h-9.3a1.794,1.794,0,0,0,.5-.7,2.353,2.353,0,0,0,.2-.8h8.9a1.345,1.345,0,0,0-.2.8Z" transform="translate(0.039 -0.384)" style="fill:#008cd9"/><path id="Path_66" data-name="Path 66" d="M90.824,28.284h9.3a3.09,3.09,0,0,0,1.1,2h-10.5C90.724,29.584,90.824,28.884,90.824,28.284Zm-.1,2.9h26.7c-.4.7-.9,1.4-1.4,2.1h-24.8a8.018,8.018,0,0,1-.5-2.1Zm.5-4.9c.1-.3.1-.6.2-.9h8.9v.2a7.772,7.772,0,0,0-.2,1.6h-9c0-.3.1-.6.1-.9Zm.3,7.8h23.8a10.027,10.027,0,0,1-3.1,2.3h-17.8a5.476,5.476,0,0,1-2.9-2.3Zm.5-10.8c.1-.3.1-.6.2-.9h8.9c-.1.4-.2.7-.3,1a2.544,2.544,0,0,0-.2.7h-8.8c.1-.2.1-.5.2-.8Zm9.8-3c-.1.2-.1.5-.2.7h-8.9l.5-1.5h8.8a3.091,3.091,0,0,0-.2.8Zm.7-2.3h-8.8l.5-1.3h8.8a6.943,6.943,0,0,0-.5,1.3Zm-7.4-4.2h8.7c-.1.2-.1.4-.2.6s-.1.4-.2.6h-8.8Zm9.5-2.2c0,.1,0,.1-.1.2h-8.7l.1-.3h8.7v.1Zm-5.4,25.7a9.079,9.079,0,0,1-2.3-.3h13.6l-1.5.3c-.5,0-1.1.1-1.6.1h-5.4a23.522,23.522,0,0,1-2.8-.1Zm19.2-8c-.2.3-.3.6-.5.9h-10.6a3.805,3.805,0,0,0,1.3-.9,5.241,5.241,0,0,0,1-1.1h9.3a11.731,11.731,0,0,1-.5,1.1Zm1.3-3-.4.9h-8.9a7.459,7.459,0,0,0,.7-1.2l.2-.6h8.8a3.552,3.552,0,0,0-.4.9Zm.9-2.5c0,.1-.1.2-.1.3h-8.7l.5-1.6h8.8l-.4,1a.367.367,0,0,0-.1.3Zm-7.3-4.2h8.7l-.5,1.5h-8.7Zm1-3h8.8l-.5,1.3h-8.7Zm1-2.8h8.8l-.4,1.2h-8.8Zm9.4-2h-8.8l.2-.3h8.8Z" transform="translate(0.039 -0.384)" style="fill:#008cd9"/><path id="Path_67" data-name="Path 67" d="M141.724,37.384h-23.2l.1-.3h23.5A1.38,1.38,0,0,1,141.724,37.384Zm2.2-2.1a11.408,11.408,0,0,1-1.1,1.1h-24l.8-2.3h25.4a11.985,11.985,0,0,1-1.1,1.2Zm2.6-3.1c-.1.2-.3.4-.4.6-.1.1-.1.2-.2.2-.1.1-.1.2-.2.2h-25.8l.7-2.1h26.5c-.2.4-.4.7-.6,1.1Zm-24.9-3.9h8.8l-.6,2h-8.8Zm1-2.9h8.8l-.1.3.3-.3h10.6l-1.8,1.8h-18.4Zm1-2.9h8.8l-.6,1.7h-8.9Zm1-2.9h8.9l-.5,1.5h-8.9Zm24.6-2.1a2.651,2.651,0,0,1-.6.5h-23.5l.5-1.3h24.4a6.034,6.034,0,0,0-.8.8Zm2.7-3.2c-.1.2-.3.4-.4.6h-25.3l.4-1.2h25.7a2.092,2.092,0,0,0-.4.6Zm1.8-2.8-.1.2-.1.2h-26.2l.1-.4Zm-19.2,11h10.6l-1.7,1.7h-10.5Z" transform="translate(0.039 -0.384)" style="fill:#008cd9"/></g><g id="Group_11" data-name="Group 11"><path id="Path_68" data-name="Path 68" d="M36.6,39.951h6.7v1.2H36.6a1.4,1.4,0,0,0-.9.3,1.116,1.116,0,0,0-.1,1.6l.1.1c.3.2.6.4.9.3h4a2.64,2.64,0,0,1,1.9.7,2.318,2.318,0,0,1,.3,3.1l-.3.3a2.64,2.64,0,0,1-1.9.7H34v-1.2h6.7a1.613,1.613,0,0,0,.9-.3,1.215,1.215,0,0,0,.1-1.6l-.1-.1a1.284,1.284,0,0,0-1-.4h-4a2.64,2.64,0,0,1-1.9-.7,2.318,2.318,0,0,1-.3-3.1l.3-.3A3.292,3.292,0,0,1,36.6,39.951Z" transform="translate(0.039 -0.384)" style="fill:#fff"/><path id="Path_69" data-name="Path 69" d="M49.6,47.051h4.7v1.2H49.6a4.971,4.971,0,0,1-3.3-1.2,3.918,3.918,0,0,1-.5-5.4c.1-.2.3-.3.5-.5a4.971,4.971,0,0,1,3.3-1.2h4.7v1.2H49.6a3.583,3.583,0,0,0-2.4.9,2.371,2.371,0,0,0-.9,1.5h7.9v1.2H46.4a2.9,2.9,0,0,0,.9,1.5,3.775,3.775,0,0,0,2.3.8Z" transform="translate(0.039 -0.384)" style="fill:#fff"/><path id="Path_70" data-name="Path 70" d="M62.6,41.151H56v-1.2h6.7a2.64,2.64,0,0,1,1.9.7,2.318,2.318,0,0,1,.3,3.1l-.3.3a2.384,2.384,0,0,1-1.1.6,1.38,1.38,0,0,0,.4.3,4.42,4.42,0,0,1,1.6,3.4H64a3.034,3.034,0,0,0-1.2-2.5,3.949,3.949,0,0,0-2.8-1.2H57.3v3.6H56v-5.9h1.3v1.2h5.3a1.4,1.4,0,0,0,.9-.3,1.116,1.116,0,0,0,.1-1.6l-.1-.1a.807.807,0,0,0-.9-.4Z" transform="translate(0.039 -0.384)" style="fill:#fff"/><path id="Path_71" data-name="Path 71" d="M67,41.151v-1.2h1.3v1.2a7.909,7.909,0,0,0,1,3.4c.6,1.5,1.4,2.3,2.3,2.5.9-.2,1.7-1,2.4-2.5a10.24,10.24,0,0,0,1-3.4v-1.2h1.3v1.2a9.516,9.516,0,0,1-1.4,4.4q-1.35,2.7-3.3,2.7t-3.3-2.7a11.733,11.733,0,0,1-1.3-4.4Z" transform="translate(0.039 -0.384)" style="fill:#fff"/><path id="Path_72" data-name="Path 72" d="M79.3,39.951v8.3H78v-8.3Z" transform="translate(0.039 -0.384)" style="fill:#fff"/><path id="Path_73" data-name="Path 73" d="M85.6,47.051h4.7v1.2H85.6a4.971,4.971,0,0,1-3.3-1.2,3.918,3.918,0,0,1-.5-5.4c.1-.2.3-.3.5-.5a4.971,4.971,0,0,1,3.3-1.2h4.7v1.2H85.6a3.583,3.583,0,0,0-2.4.9,2.723,2.723,0,0,0-.3,3.9l.3.3a4.31,4.31,0,0,0,2.4.8Z" transform="translate(0.039 -0.384)" style="fill:#fff"/><path id="Path_74" data-name="Path 74" d="M96.6,47.051h4.7v1.2H96.6a4.971,4.971,0,0,1-3.3-1.2,3.918,3.918,0,0,1-.5-5.4c.1-.2.3-.3.5-.5a4.971,4.971,0,0,1,3.3-1.2h4.7v1.2H96.6a3.583,3.583,0,0,0-2.4.9,2.371,2.371,0,0,0-.9,1.5h7.9v1.2H93.3a2.9,2.9,0,0,0,.9,1.5,4.31,4.31,0,0,0,2.4.8Z" transform="translate(0.039 -0.384)" style="fill:#fff"/><path id="Path_75" data-name="Path 75" d="M105.6,39.951h6.7v1.2h-6.7a1.4,1.4,0,0,0-.9.3,1.116,1.116,0,0,0-.1,1.6l.1.1c.3.2.6.4.9.3h4a2.64,2.64,0,0,1,1.9.7,2.318,2.318,0,0,1,.3,3.1l-.3.3a2.64,2.64,0,0,1-1.9.7H103v-1.2h6.7a1.4,1.4,0,0,0,.9-.3,1.116,1.116,0,0,0,.1-1.6l-.1-.1c-.3-.2-.6-.4-.9-.3h-4a2.64,2.64,0,0,1-1.9-.7,2.318,2.318,0,0,1-.3-3.1l.3-.3A2.41,2.41,0,0,1,105.6,39.951Z" transform="translate(0.039 -0.384)" style="fill:#fff"/><path id="Path_76" data-name="Path 76" d="M119,39.951v8.3h-1.3v-8.3Z" transform="translate(0.039 -0.384)" style="fill:#fff"/><path id="Path_77" data-name="Path 77" d="M122,44.051v4.2h-1.3v-4.2a3.7,3.7,0,0,1,1.4-2.9,5.137,5.137,0,0,1,6.6,0,3.7,3.7,0,0,1,1.4,2.9v4.2h-1.3v-4.2a2.814,2.814,0,0,0-1-2.1,3.517,3.517,0,0,0-4.7,0A2.609,2.609,0,0,0,122,44.051Z" transform="translate(0.039 -0.384)" style="fill:#fff"/><path id="Path_78" data-name="Path 78" d="M136.4,47.051H141v1.2h-4.7a4.971,4.971,0,0,1-3.3-1.2,3.918,3.918,0,0,1-.5-5.4c.1-.2.3-.3.5-.5a4.971,4.971,0,0,1,3.3-1.2H141v1.2h-4.7a3.583,3.583,0,0,0-2.4.9,2.723,2.723,0,0,0-.3,3.9.52.52,0,0,1,.4.2,3.583,3.583,0,0,0,2.4.9Z" transform="translate(0.039 -0.384)" style="fill:#fff"/><path id="Path_79" data-name="Path 79" d="M144,47.051v1.2h-1.3v-1.2Z" transform="translate(0.039 -0.384)" style="fill:#fff"/></g></g></g></g></svg>