<svg id="Layer_1" data-name="Layer 1" xmlns="http://www.w3.org/2000/svg" width="0.44in" height="0.438in" viewBox="0 0 31.687 31.509"><defs><style>.cls-1{fill:#118cd9;stroke:#118cd9;stroke-width:0.75px;}</style></defs><path class="cls-1" d="M27.007,20.154a2.39,2.39,0,0,0-3.614.017c-.841.842-1.682,1.684-2.509,2.54a.5.5,0,0,1-.7.131c-.548-.295-1.132-.534-1.659-.858a26.245,26.245,0,0,1-6.348-5.721A14.981,14.981,0,0,1,9.9,12.645a.52.52,0,0,1,.124-.668c.841-.821,1.661-1.663,2.488-2.505a2.4,2.4,0,0,0-.025-3.7c-.664-.665-1.327-1.315-1.991-1.979C9.811,3.115,9.133,2.43,8.441,1.759a2.406,2.406,0,0,0-3.614.024C3.979,2.625,3.166,3.488,2.3,4.316A4.115,4.115,0,0,0,1.025,7.1a11.765,11.765,0,0,0,.933,5.059,30.781,30.781,0,0,0,5.505,9.07,33.8,33.8,0,0,0,11.233,8.7A16.189,16.189,0,0,0,24.9,31.7,4.542,4.542,0,0,0,28.8,30.2c.721-.813,1.534-1.555,2.3-2.333a2.415,2.415,0,0,0,0-3.678Q29.055,22.164,27.007,20.154Z" transform="translate(-0.628 -0.578)"/></svg>